<svg xmlns="http://www.w3.org/2000/svg" viewBox="0 0 244 244">
    <defs>
        <style>
            .cls-1{fill:#dfe7f4;stroke:#000;stroke-miterlimit:10;}.cls-2{fill:#ff4a4a;}.cls-3{fill:#ff9f22;}.cls-4{fill:#90e36a;}.cls-5{fill:#b2b2b2;}</style>
    </defs>
    <g id="Capa_2" data-name="Capa 2">
        <g id="icono">
            <rect class="cls-1" x="0.5" y="0.5" width="243" height="243" rx="20" />
            <circle id="third-circle" class="cls-2" cx="122" cy="153.41" r="4.5" />
            <circle id="second-circle" class="cls-3" cx="122" cy="132.41" r="4.5" />
            <circle id="first-circle" class="cls-4" cx="122" cy="111.41" r="4.5" />
            <path class="cls-5"
                d="M30.14,161.43H59.51C39.55,137.18,21,112.93,1,88.68v5.75c17.06,21.24,32.74,42.49,49.8,63.74H22.53c22.7,28.76,45.41,56.07,68.12,84.83H96C74.06,215.33,52.1,189.1,30.14,161.43Z" />
            <path class="cls-5"
                d="M154.14,243c22.45-28.43,44.89-56.4,67.33-84.83H193.19c16.82-21,33-41.91,49.81-62.86V89.53c-19.72,24-38.79,47.93-58.51,71.9h29.37c-21.69,27.34-43.39,54.23-65.08,81.57" />
            <g id="Layer_1-2" data-name="Layer 1-2">
                <polygon class="cls-5"
                    points="37.81 65.64 37.81 95.86 27.99 76.4 21.97 83.05 15.85 58.35 25.48 47.41 31.68 72.37 37.81 65.64" />
                <polygon class="cls-5"
                    points="40.73 65.64 40.73 95.86 50.55 76.4 56.57 83.05 62.69 58.35 53.06 47.41 46.86 72.37 40.73 65.64" />
                <polygon class="cls-5"
                    points="96.04 59.28 91.99 72.78 86.35 62.82 80.73 72.78 76.73 59.28 70.98 59.28 78.27 83.95 86.35 71.56 94.46 83.95 101.75 59.28 96.04 59.28" />
                <polygon class="cls-5"
                    points="97.04 83.95 103.41 83.95 110.46 68.9 117.54 83.95 123.92 83.95 110.46 59.28 97.04 83.95" />
                <polygon class="cls-5"
                    points="120.35 59.28 120.35 64.01 127.73 64.01 127.73 83.99 133.24 83.99 133.24 64.01 143.52 64.01 143.52 83.99 149.03 83.99 149.03 64.01 156.38 64.01 156.38 59.28 120.35 59.28" />
                <path class="cls-5"
                    d="M182.4,59.28h-5.51V71.65c0,3.18-1,7-5.94,7-5.16,0-5.94-4.37-5.94-7V59.28h-5.53V71.65C159.48,79.12,164,84,171,84s11.45-4.83,11.45-12.3Z" />
                <polygon class="cls-5"
                    points="181.45 83.95 187.83 83.95 194.87 68.9 201.96 83.95 208.33 83.95 194.87 59.28 181.45 83.95" />
                <polygon class="cls-5"
                    points="215.82 79.19 215.82 59.28 210.27 59.28 210.27 83.95 227.85 83.95 227.85 79.19 215.82 79.19" />
            </g>
        </g>
    </g>
</svg>