<svg xmlns="http://www.w3.org/2000/svg" viewBox="0 0 249.73 172">
    <defs>
        <style>
            .cls-1{fill:#dfe7f4;stroke:#000;stroke-miterlimit:10;}.cls-2{fill:#b2b2b2;}.cls-3{fill:#ff4a4a;}.cls-4{fill:#ff9f22;}.cls-5{fill:#90e36a;}</style>
    </defs>
    <g id="Capa_2" data-name="Capa 2">
        <g id="icono">
            <rect class="cls-1" x="0.5" y="0.5" width="248.73" height="171" rx="14.5" />
            <path class="cls-2"
                d="M161.43,73.27C174,49.06,186.64,25.23,199.22,1h-3.47c-13,25-26,49.58-38.93,74.57h34.57c-15.83,29.39-46.64,86-51.72,95.42h3.46L196,73.27Z" />
            <circle id="third-circle" class="cls-3" cx="204.69" cy="138.45" r="4.5" />
            <circle id="second-circle" class="cls-4" cx="204.69" cy="117.45" r="4.5" />
            <circle id="first-circle" class="cls-5" cx="204.69" cy="96.45" r="4.5" />
            <g id="Layer_1-2" data-name="Layer 1-2">
                <polygon class="cls-2"
                    points="31.97 79.76 31.97 98.36 25.94 86.38 22.23 90.47 18.46 75.28 24.39 68.55 28.21 83.9 31.97 79.76" />
                <polygon class="cls-2"
                    points="33.77 79.76 33.77 98.36 39.81 86.38 43.52 90.47 47.28 75.28 41.36 68.55 37.54 83.9 33.77 79.76" />
                <polygon class="cls-2"
                    points="67.8 75.85 65.31 84.16 61.84 78.03 58.39 84.15 55.92 75.85 52.39 75.85 56.87 91.03 61.84 83.41 66.83 91.03 71.31 75.85 67.8 75.85" />
                <polygon class="cls-2"
                    points="68.42 91.03 72.34 91.03 76.68 81.77 81.03 91.03 84.96 91.03 76.67 75.85 68.42 91.03" />
                <polygon class="cls-2"
                    points="82.76 75.85 82.76 78.76 87.3 78.76 87.3 91.05 90.69 91.05 90.69 78.76 97.02 78.76 97.02 91.05 100.41 91.05 100.41 78.76 104.93 78.76 104.93 75.85 82.76 75.85" />
                <path class="cls-2"
                    d="M120.94,75.85h-3.39v7.61c0,2-.64,4.29-3.66,4.29-3.17,0-3.65-2.69-3.65-4.29V75.85h-3.41v7.61c0,4.6,2.78,7.57,7.07,7.57s7-3,7-7.57Z" />
                <polygon class="cls-2"
                    points="120.35 91.03 124.28 91.03 128.61 81.77 132.97 91.03 136.9 91.03 128.61 75.85 120.35 91.03" />
                <polygon class="cls-2"
                    points="141.5 88.1 141.5 75.85 138.09 75.85 138.09 91.03 148.9 91.03 148.9 88.1 141.5 88.1" />
            </g>
        </g>
    </g>
</svg>