<svg xmlns="http://www.w3.org/2000/svg" viewBox="0 0 1200 274.23"><g id="Layer_2" data-name="Layer 2"><g id="Layer_1-2" data-name="Layer 1"><polygon points="124.3 103.18 124.3 274.23 68.75 164.08 34.67 201.71 0 61.89 54.54 0 89.63 141.26 124.3 103.18"/><polygon points="140.87 103.18 140.87 274.23 196.41 164.08 230.5 201.71 265.16 61.89 210.63 0 175.54 141.26 140.87 103.18"/><polygon points="453.9 67.2 431.01 143.6 399.05 87.23 367.29 143.57 344.6 67.2 312.08 67.2 353.32 206.84 399.06 136.69 444.99 206.84 486.22 67.2 453.9 67.2"/><polygon points="459.56 206.84 495.66 206.84 535.55 121.62 575.63 206.84 611.73 206.84 535.54 67.2 459.56 206.84"/><polygon points="591.51 67.2 591.51 93.94 633.32 93.94 633.32 207.03 664.51 207.03 664.51 93.94 722.68 93.94 722.68 207.03 753.87 207.03 753.87 93.94 795.48 93.94 795.48 67.2 591.51 67.2"/><path d="M942.76,67.2H911.57v70c0,18-5.84,39.49-33.62,39.49-29.24,0-33.61-24.74-33.61-39.49v-70H813v70c0,42.3,25.51,69.63,65,69.63s64.81-27.33,64.81-69.63Z"/><polygon points="937.37 206.84 973.47 206.84 1013.36 121.62 1053.45 206.84 1089.55 206.84 1013.36 67.2 937.37 206.84"/><polygon points="1131.9 179.9 1131.9 67.2 1100.52 67.2 1100.52 206.84 1200 206.84 1200 179.9 1131.9 179.9"/></g></g></svg>